/* XPM */
static char * bottom_right_active_xpm[] = {
"5 6 8 1",
" 	c None",
".	c #63A3F0",
"+	c #444444",
"@	c #62A2F0",
"#	c #60A1F0",
"$	c #74A5D6",
"%	c #5E9FEF",
"&	c #80A1AB",
"....+",
"@@@@+",
"####+",
"###$+",
"%%$&+",
"++++ "};
