/* XPM */
static char * bottom_active_xpm[] = {
"1 6 6 1",
" 	c None",
".	c #63A3F0",
"+	c #62A2F0",
"@	c #60A1F0",
"#	c #5E9FEF",
"$	c #444444",
".",
"+",
"@",
"@",
"#",
"$"};
