/* XPM */
static char * bottom_left_active_xpm[] = {
"5 6 8 1",
" 	c None",
".	c #444444",
"+	c #63A3F0",
"@	c #62A2F0",
"#	c #60A1F0",
"$	c #74A5D6",
"%	c #80A1AB",
"&	c #5E9FEF",
".++++",
".@@@@",
".####",
".$###",
".%$&&",
" ...."};
