/* XPM */
static char * close_prelight_xpm[] = {
"21 20 89 1",
" 	c None",
".	c #C4C8CF",
"+	c #72ABF4",
"@	c #71AAF5",
"#	c #61A1F0",
"$	c #71AAF4",
"%	c #4B94EA",
"&	c #5186C9",
"*	c #70A9F4",
"=	c #5298EC",
"-	c #4680C5",
";	c #BCDCDC",
">	c #BCDBDC",
",	c #BDDBDC",
"'	c #6FA9F3",
")	c #5399EC",
"!	c #BADBDB",
"~	c #BADBDC",
"{	c #BBDBDB",
"]	c #BBDADB",
"^	c #BBDBDC",
"/	c #BBDADC",
"(	c #6EA9F4",
"_	c #559AED",
":	c #B8D9DA",
"<	c #B9D9DA",
"[	c #5F95D8",
"}	c #456FA4",
"|	c #B8DADA",
"1	c #6EA9F3",
"2	c #579BED",
"3	c #B6D8D9",
"4	c #B6D8D8",
"5	c #C6DDF9",
"6	c #5F8CC4",
"7	c #B6D7D9",
"8	c #6DA8F4",
"9	c #599CEE",
"0	c #4580C5",
"a	c #B4D5D7",
"b	c #B3D6D8",
"c	c #B3D5D8",
"d	c #6CA8F3",
"e	c #5A9DEE",
"f	c #B1D5D7",
"g	c #B0D5D6",
"h	c #B0D4D7",
"i	c #B1D4D6",
"j	c #5C9EEE",
"k	c #AED3D6",
"l	c #AED2D5",
"m	c #AFD3D6",
"n	c #AED3D5",
"o	c #6AA7F2",
"p	c #5D9FEE",
"q	c #457FC5",
"r	c #ACD1D5",
"s	c #ABD2D4",
"t	c #ACD1D4",
"u	c #ACD2D4",
"v	c #69A6F2",
"w	c #5E9FEF",
"x	c #A9D0D3",
"y	c #A9D0D2",
"z	c #A9CFD3",
"A	c #5FA0EF",
"B	c #A6CED1",
"C	c #A6CED2",
"D	c #68A6F2",
"E	c #60A1F0",
"F	c #447FC5",
"G	c #A4CCD0",
"H	c #A4CCD1",
"I	c #A4CDD0",
"J	c #68A5F2",
"K	c #62A1F0",
"L	c #A1CBCF",
"M	c #A1CBD0",
"N	c #A1CACF",
"O	c #A2CBCF",
"P	c #A1CAD0",
"Q	c #67A5F1",
"R	c #63A2F0",
"S	c #9FCACE",
"T	c #9FC9CE",
"U	c #9EC9CE",
"V	c #66A5F1",
"W	c #65A4F1",
"X	c #5097EB",
".....................",
"+++++++++++++++++++++",
"@@@###############@@@",
"$$%&&&&&&&&&&&&&&&%$$",
"*=-;;>>>>>>>>>;;,;-=*",
"')-!~{!{{]{{!]{^/{-)'",
"(_-:<::[}[<[}[||::-_(",
"12-334[}5}6}5}[737-21",
"890abb}555[555}bbc098",
"de0fgh[}55555}[hhi0ed",
"dj0klkm6[555[6llnn0jd",
"opqrss[}55555}[tutqpo",
"vwqxxx}555[555}yxzqwv",
"vAqBBC[}5}6}5}[CBCqAv",
"DEFGGGH[}[H[}[HIIIFED",
"JKFLLMNLOOMNOMPOLMFKJ",
"QRFSSTTTTTSTTUSSTTFRQ",
"VV%FFFFFFFFFFFFFFF%VV",
"WWWXXXXXXXXXXXXXXXWWW",
"WWWWWWWWWWWWWWWWWWWWW"};
