/* XPM */
static char * close_pressed_xpm[] = {
"21 20 75 1",
" 	c None",
".	c #C4C8CF",
"+	c #72ABF4",
"@	c #71AAF5",
"#	c #61A1F0",
"$	c #71AAF4",
"%	c #4B94EA",
"&	c #5186C9",
"*	c #70A9F4",
"=	c #5298EC",
"-	c #4680C5",
";	c #96C2E6",
">	c #6FA9F3",
",	c #5399EC",
"'	c #95C2E6",
")	c #95C1E6",
"!	c #6EA9F4",
"~	c #559AED",
"{	c #93C0E5",
"]	c #3984E1",
"^	c #35649F",
"/	c #93C1E5",
"(	c #6EA9F3",
"_	c #579BED",
":	c #91C0E5",
"<	c #91C0E4",
"[	c #98C6FE",
"}	c #3F7DC9",
"|	c #91BFE5",
"1	c #6DA8F4",
"2	c #599CEE",
"3	c #4580C5",
"4	c #90BEE3",
"5	c #8FBEE4",
"6	c #6CA8F3",
"7	c #5A9DEE",
"8	c #8EBEE3",
"9	c #8DBEE2",
"0	c #8DBDE3",
"a	c #8EBDE2",
"b	c #5C9EEE",
"c	c #8CBCE2",
"d	c #6AA7F2",
"e	c #5D9FEE",
"f	c #457FC5",
"g	c #8ABAE2",
"h	c #89BBE1",
"i	c #8ABAE1",
"j	c #8ABBE1",
"k	c #69A6F2",
"l	c #5E9FEF",
"m	c #88BAE1",
"n	c #88BAE0",
"o	c #88B9E1",
"p	c #5FA0EF",
"q	c #86B9E0",
"r	c #68A6F2",
"s	c #60A1F0",
"t	c #447FC5",
"u	c #85B7DE",
"v	c #85B7DF",
"w	c #85B8DE",
"x	c #68A5F2",
"y	c #62A1F0",
"z	c #83B7DE",
"A	c #83B7DF",
"B	c #83B6DE",
"C	c #84B7DE",
"D	c #83B6DF",
"E	c #67A5F1",
"F	c #63A2F0",
"G	c #82B6DD",
"H	c #66A5F1",
"I	c #65A4F1",
"J	c #5097EB",
".....................",
"+++++++++++++++++++++",
"@@@###############@@@",
"$$%&&&&&&&&&&&&&&&%$$",
"*=-;;;;;;;;;;;;;;;-=*",
">,-'''''')''')'')'-,>",
"!~-{{{{]^]{]^]//{{-~!",
"(_-::<]^[^}^[^]|:|-_(",
"123455^[[[][[[^555321",
"673890]^[[[[[^]00a376",
"6b3cccc}][[[]}cccc3b6",
"defghh]^[[[[[^]ijifed",
"klfmmm^[[[][[[^nmoflk",
"kpfqqq]^[^}^[^]qqqfpk",
"rstuuuv]^]v]^]vwwwtsr",
"xytzzABzCCABCADCzAtyx",
"EFtGGGGGGGGGGGGGGGtFE",
"HH%ttttttttttttttt%HH",
"IIIJJJJJJJJJJJJJJJIII",
"IIIIIIIIIIIIIIIIIIIII"};
