/* XPM */
static char * close_active_xpm[] = {
"21 20 53 1",
" 	c None",
".	c #C4C8CF",
"+	c #72ABF4",
"@	c #71AAF5",
"#	c #61A1F0",
"$	c #71AAF4",
"%	c #4B94EA",
"&	c #5186C9",
"*	c #70A9F4",
"=	c #5298EC",
"-	c #4680C5",
";	c #71AAF1",
">	c #6FA9F3",
",	c #5399EC",
"'	c #6EA9F4",
")	c #559AED",
"!	c #6FA9F1",
"~	c #5F95D8",
"{	c #456FA4",
"]	c #6EA9F3",
"^	c #579BED",
"/	c #6EA9F1",
"(	c #C6DDF9",
"_	c #5F8CC4",
":	c #6DA8F4",
"<	c #599CEE",
"[	c #4580C5",
"}	c #6DA8F0",
"|	c #6CA8F3",
"1	c #5A9DEE",
"2	c #6CA8EF",
"3	c #5C9EEE",
"4	c #6BA7EF",
"5	c #6AA7F2",
"6	c #5D9FEE",
"7	c #457FC5",
"8	c #69A5EF",
"9	c #69A6F2",
"0	c #5E9FEF",
"a	c #68A5EF",
"b	c #5FA0EF",
"c	c #68A6F2",
"d	c #60A1F0",
"e	c #447FC5",
"f	c #67A4ED",
"g	c #68A5F2",
"h	c #62A1F0",
"i	c #67A4EE",
"j	c #67A5F1",
"k	c #63A2F0",
"l	c #66A5F1",
"m	c #65A4F1",
"n	c #5097EB",
".....................",
"+++++++++++++++++++++",
"@@@###############@@@",
"$$%&&&&&&&&&&&&&&&%$$",
"*=-;;;;;;;;;;;;;;;-=*",
">,-;;;;;;;;;;;;;;;-,>",
"')-!!!!~{~!~{~!!!!-)'",
"]^-///~{({_{({~///-^]",
":<[}}}{(((~((({}}}[<:",
"|1[222~{((((({~222[1|",
"|3[4444_~(((~_4444[3|",
"567888~{((((({~888765",
"907aaa{(((~((({aaa709",
"9b7aaa~{({_{({~aaa7b9",
"cdeffff~{~f~{~ffffedc",
"gheiiiiiiiiiiiiiiiehg",
"jkefffffffffffffffekj",
"ll%eeeeeeeeeeeeeee%ll",
"mmmnnnnnnnnnnnnnnnmmm",
"mmmmmmmmmmmmmmmmmmmmm"};
