/* XPM */
static char * hide_prelight_xpm[] = {
"21 20 82 1",
" 	c None",
".	c #C4C8CF",
"+	c #72ABF4",
"@	c #71AAF5",
"#	c #71AAF4",
"$	c #70A9F4",
"%	c #60A1F0",
"&	c #6FA9F3",
"*	c #4B94EA",
"=	c #5086C9",
"-	c #6EA9F4",
";	c #559AED",
">	c #4680C5",
",	c #B8D9DA",
"'	c #B9D9DA",
")	c #B8D9DB",
"!	c #B8DADA",
"~	c #6EA9F3",
"{	c #579BED",
"]	c #B6D8D9",
"^	c #B6D8D8",
"/	c #B6D7D9",
"(	c #B5D7D9",
"_	c #6DA8F4",
":	c #599CEE",
"<	c #4580C5",
"[	c #B4D5D7",
"}	c #B3D6D8",
"|	c #B4D6D7",
"1	c #B3D6D7",
"2	c #B3D5D7",
"3	c #B3D5D8",
"4	c #6CA8F3",
"5	c #5A9DEE",
"6	c #B1D5D7",
"7	c #B0D5D6",
"8	c #B0D4D7",
"9	c #B1D5D6",
"0	c #B1D4D6",
"a	c #B0D4D6",
"b	c #B1D4D7",
"c	c #5C9EEE",
"d	c #AED3D6",
"e	c #AED2D5",
"f	c #5F95D8",
"g	c #456FA4",
"h	c #AED3D5",
"i	c #6AA7F2",
"j	c #5D9FEE",
"k	c #457FC5",
"l	c #ACD1D5",
"m	c #ABD2D4",
"n	c #C6DDF9",
"o	c #ACD1D4",
"p	c #ACD2D4",
"q	c #69A6F2",
"r	c #5E9FEF",
"s	c #A9D0D3",
"t	c #A9D0D2",
"u	c #A9CFD3",
"v	c #5FA0EF",
"w	c #A6CED1",
"x	c #A6CED2",
"y	c #68A6F2",
"z	c #447FC5",
"A	c #A4CCD0",
"B	c #A4CDD0",
"C	c #68A5F2",
"D	c #62A1F0",
"E	c #A1CBCF",
"F	c #A1CBD0",
"G	c #A1CACF",
"H	c #A2CBCF",
"I	c #A1CAD0",
"J	c #67A5F1",
"K	c #63A2F0",
"L	c #9FCACE",
"M	c #9FC9CE",
"N	c #9EC9CE",
"O	c #66A5F1",
"P	c #65A4F1",
"Q	c #5097EB",
".....................",
"+++++++++++++++++++++",
"@@@@@@@@@@@@@@@@@@@@@",
"#####################",
"$$$%%%%%%%%%%%%%%%$$$",
"&&*===============*&&",
"-;>,',,),,',,,!!,,>;-",
"~{>]]^///(]//]//]/>{~",
"_:<[}}}|}}}1}21}}3<:_",
"45<67890a0ababb880<54",
"4c<dedfgggggggfehh<c4",
"ijklmmgnnnnnnngopokji",
"qrksssgnnnnnnngtsukrq",
"qvkwwxgnnnnnnngxwxkvq",
"y%zAAAfgggggggfBBBz%y",
"CDzEEFGEHHFGHFIHEFzDC",
"JKzLLMMMMMLMMNLLMMzKJ",
"OO*zzzzzzzzzzzzzzz*OO",
"PPPQQQQQQQQQQQQQQQPPP",
"PPPPPPPPPPPPPPPPPPPPP"};
