/* XPM */
static char * hide_active_xpm[] = {
"21 20 43 1",
" 	c None",
".	c #C4C8CF",
"+	c #72ABF4",
"@	c #71AAF5",
"#	c #71AAF4",
"$	c #70A9F4",
"%	c #60A1F0",
"&	c #6FA9F3",
"*	c #4B94EA",
"=	c #5086C9",
"-	c #6EA9F4",
";	c #559AED",
">	c #4680C5",
",	c #71AAF1",
"'	c #6EA9F3",
")	c #579BED",
"!	c #6DA8F4",
"~	c #599CEE",
"{	c #4580C5",
"]	c #6FA8F1",
"^	c #6CA8F3",
"/	c #5A9DEE",
"(	c #5C9EEE",
"_	c #5F95D8",
":	c #546C8B",
"<	c #6AA7F2",
"[	c #5D9FEE",
"}	c #457FC5",
"|	c #C6DDF9",
"1	c #69A6F2",
"2	c #5E9FEF",
"3	c #5FA0EF",
"4	c #68A6F2",
"5	c #447FC5",
"6	c #67A4EE",
"7	c #68A5F2",
"8	c #62A1F0",
"9	c #67A5F1",
"0	c #63A2F0",
"a	c #67A4ED",
"b	c #66A5F1",
"c	c #65A4F1",
"d	c #5097EB",
".....................",
"+++++++++++++++++++++",
"@@@@@@@@@@@@@@@@@@@@@",
"#####################",
"$$$%%%%%%%%%%%%%%%$$$",
"&&*===============*&&",
"-;>,,,,,,,,,,,,,,,>;-",
"')>,,,,,,,,,,,,,,,>)'",
"!~{]]]]]]]]]]]]]]]{~!",
"^/{^^^^^^^^^^^^^^^{/^",
"^({^^^_:::::::_^^^{(^",
"<[}<<<:|||||||:<<<}[<",
"12}111:|||||||:111}21",
"13}111:|||||||:111}31",
"4%5666_:::::::_6665%4",
"785666666666666666587",
"905aaaaaaaaaaaaaaa509",
"bb*555555555555555*bb",
"cccdddddddddddddddccc",
"ccccccccccccccccccccc"};
