/* XPM */
static char * hide_pressed_xpm[] = {
"21 20 68 1",
" 	c None",
".	c #C4C8CF",
"+	c #72ABF4",
"@	c #71AAF5",
"#	c #71AAF4",
"$	c #70A9F4",
"%	c #60A1F0",
"&	c #6FA9F3",
"*	c #4B94EA",
"=	c #5086C9",
"-	c #6EA9F4",
";	c #559AED",
">	c #4680C5",
",	c #94C1E5",
"'	c #94C1E6",
")	c #6EA9F3",
"!	c #579BED",
"~	c #93C0E5",
"{	c #93C0E4",
"]	c #92C0E5",
"^	c #6DA8F4",
"/	c #599CEE",
"(	c #4580C5",
"_	c #91BEE4",
":	c #90BEE4",
"<	c #6CA8F3",
"[	c #5A9DEE",
"}	c #8EBEE5",
"|	c #8DBEE4",
"1	c #8DBDE5",
"2	c #8EBEE4",
"3	c #8EBDE4",
"4	c #8DBDE4",
"5	c #8EBDE5",
"6	c #5C9EEE",
"7	c #8CBDE4",
"8	c #8CBCE4",
"9	c #3984E1",
"0	c #35649F",
"a	c #6AA7F2",
"b	c #5D9FEE",
"c	c #457FC5",
"d	c #8ABBE3",
"e	c #8ABCE3",
"f	c #98C6FE",
"g	c #69A6F2",
"h	c #5E9FEF",
"i	c #88BAE2",
"j	c #5FA0EF",
"k	c #87B9E1",
"l	c #87B9E2",
"m	c #68A6F2",
"n	c #447FC5",
"o	c #85B7DF",
"p	c #85B8DF",
"q	c #68A5F2",
"r	c #62A1F0",
"s	c #83B7DE",
"t	c #83B7DF",
"u	c #83B6DE",
"v	c #84B7DE",
"w	c #83B6DF",
"x	c #67A5F1",
"y	c #63A2F0",
"z	c #82B6DD",
"A	c #66A5F1",
"B	c #65A4F1",
"C	c #5097EB",
".....................",
"+++++++++++++++++++++",
"@@@@@@@@@@@@@@@@@@@@@",
"#####################",
"$$$%%%%%%%%%%%%%%%$$$",
"&&*===============*&&",
"-;>,,,,',,,,,,,,,,>;-",
")!>~~{~~~]~~~~~~~~>!)",
"^/(_:::_::::::::::(/^",
"<[(}|1234345455113([<",
"<6(787900000009877(6<",
"abcdee0fffffff0dedcba",
"ghciii0fffffff0iiichg",
"gjckkl0fffffff0lklcjg",
"m%nooo900000009pppn%m",
"qrnsstusvvtuvtwvstnrq",
"xynzzzzzzzzzzzzzzznyx",
"AA*nnnnnnnnnnnnnnn*AA",
"BBBCCCCCCCCCCCCCCCBBB",
"BBBBBBBBBBBBBBBBBBBBB"};
