/* XPM */
static char * maximize_pressed_xpm[] = {
"21 20 66 1",
" 	c None",
".	c #C4C8CF",
"+	c #72ABF4",
"@	c #71AAF5",
"#	c #61A1F0",
"$	c #71AAF4",
"%	c #4B94EA",
"&	c #5186C9",
"*	c #70A9F4",
"=	c #5298EC",
"-	c #4680C5",
";	c #96C2E6",
">	c #6FA9F3",
",	c #5399EC",
"'	c #95C2E6",
")	c #95C1E6",
"!	c #6EA9F4",
"~	c #559AED",
"{	c #93C0E5",
"]	c #35649F",
"^	c #6EA9F3",
"/	c #579BED",
"(	c #91C0E6",
"_	c #98C6FE",
":	c #91BFE6",
"<	c #6DA8F4",
"[	c #599CEE",
"}	c #4580C5",
"|	c #90BEE5",
"1	c #8FBEE6",
"2	c #6CA8F3",
"3	c #5A9DEE",
"4	c #8EBEE5",
"5	c #8DBEE4",
"6	c #3984E1",
"7	c #8DBDE5",
"8	c #8EBDE4",
"9	c #5C9EEE",
"0	c #8CBDE4",
"a	c #8CBCE4",
"b	c #6AA7F2",
"c	c #5D9FEE",
"d	c #457FC5",
"e	c #8ABBE3",
"f	c #8ABCE3",
"g	c #69A6F2",
"h	c #5E9FEF",
"i	c #88BAE2",
"j	c #5FA0EF",
"k	c #87B9E1",
"l	c #87B9E2",
"m	c #68A6F2",
"n	c #60A1F0",
"o	c #447FC5",
"p	c #85B7DF",
"q	c #85B8DF",
"r	c #68A5F2",
"s	c #62A1F0",
"t	c #83B7DE",
"u	c #83B7DF",
"v	c #67A5F1",
"w	c #63A2F0",
"x	c #82B6DD",
"y	c #66A5F1",
"z	c #65A4F1",
"A	c #5097EB",
".....................",
"+++++++++++++++++++++",
"@@@###############@@@",
"$$%&&&&&&&&&&&&&&&%$$",
"*=-;;;;;;;;;;;;;;;-=*",
">,-'''''')''')'')'-,>",
"!~-{{]]]]]]]]]]]{{-~!",
"^/-((]_________](:-/^",
"<[}|1]_________]11}[<",
"23}45]_6666666_]78}32",
"29}0a]_6222226_]00}92",
"bcdef]_6bbbbb6_]fedcb",
"ghdii]_6ggggg6_]iidhg",
"gjdkk]_6666666_]kldjg",
"mnopp]_________]qqonm",
"rsott]]]]]]]]]]]tuosr",
"vwoxxxxxxxxxxxxxxxowv",
"yy%ooooooooooooooo%yy",
"zzzAAAAAAAAAAAAAAAzzz",
"zzzzzzzzzzzzzzzzzzzzz"};
