/* XPM */
static char * maximize_prelight_xpm[] = {
"21 20 80 1",
" 	c None",
".	c #C4C8CF",
"+	c #72ABF4",
"@	c #71AAF5",
"#	c #61A1F0",
"$	c #71AAF4",
"%	c #4B94EA",
"&	c #5186C9",
"*	c #70A9F4",
"=	c #5298EC",
"-	c #4680C5",
";	c #BCDCDC",
">	c #BCDBDC",
",	c #BDDBDC",
"'	c #6FA9F3",
")	c #5399EC",
"!	c #BADBDB",
"~	c #BADBDC",
"{	c #BBDBDB",
"]	c #BBDADB",
"^	c #BBDBDC",
"/	c #BBDADC",
"(	c #6EA9F4",
"_	c #559AED",
":	c #B8D9DA",
"<	c #B9D9DA",
"[	c #456FA4",
"}	c #6EA9F3",
"|	c #579BED",
"1	c #B6D8D9",
"2	c #C6DDF9",
"3	c #B6D7D9",
"4	c #6DA8F4",
"5	c #599CEE",
"6	c #4580C5",
"7	c #B4D5D7",
"8	c #B3D6D8",
"9	c #B3D5D8",
"0	c #6CA8F3",
"a	c #5A9DEE",
"b	c #B1D5D7",
"c	c #B0D5D6",
"d	c #5F95D8",
"e	c #B0D4D7",
"f	c #B1D4D6",
"g	c #5C9EEE",
"h	c #AED3D6",
"i	c #AED2D5",
"j	c #AED3D5",
"k	c #6AA7F2",
"l	c #5D9FEE",
"m	c #457FC5",
"n	c #ACD1D5",
"o	c #ABD2D4",
"p	c #ACD2D4",
"q	c #ACD1D4",
"r	c #69A6F2",
"s	c #5E9FEF",
"t	c #A9D0D3",
"u	c #A9CFD3",
"v	c #5FA0EF",
"w	c #A6CED1",
"x	c #A6CED2",
"y	c #68A6F2",
"z	c #60A1F0",
"A	c #447FC5",
"B	c #A4CCD0",
"C	c #A4CDD0",
"D	c #68A5F2",
"E	c #62A1F0",
"F	c #A1CBCF",
"G	c #A1CBD0",
"H	c #67A5F1",
"I	c #63A2F0",
"J	c #9FCACE",
"K	c #9FC9CE",
"L	c #9EC9CE",
"M	c #66A5F1",
"N	c #65A4F1",
"O	c #5097EB",
".....................",
"+++++++++++++++++++++",
"@@@###############@@@",
"$$%&&&&&&&&&&&&&&&%$$",
"*=-;;>>>>>>>>>;;,;-=*",
"')-!~{!{{]{{!]{^/{-)'",
"(_-:<[[[[[[[[[[[::-_(",
"}|-11[222222222[13-|}",
"45678[222222222[89654",
"0a6bc[2ddddddd2[ef6a0",
"0g6hi[2d00000d2[jj6g0",
"klmno[2dkkkkkd2[pqmlk",
"rsmtt[2drrrrrd2[tumsr",
"rvmww[2ddddddd2[wxmvr",
"yzABB[222222222[CCAzy",
"DEAFF[[[[[[[[[[[FGAED",
"HIAJJKKKKKJKKLJJKKAIH",
"MM%AAAAAAAAAAAAAAA%MM",
"NNNOOOOOOOOOOOOOOONNN",
"NNNNNNNNNNNNNNNNNNNNN"};
