/* XPM */
static char * maximize_toggled_prelight_xpm[] = {
"21 20 84 1",
" 	c None",
".	c #C4C8CF",
"+	c #72ABF4",
"@	c #71AAF5",
"#	c #61A1F0",
"$	c #71AAF4",
"%	c #4B94EA",
"&	c #5186C9",
"*	c #70A9F4",
"=	c #5298EC",
"-	c #4680C5",
";	c #BCDCDC",
">	c #BCDBDC",
",	c #BDDBDC",
"'	c #6FA9F3",
")	c #5399EC",
"!	c #BADBDB",
"~	c #BADBDC",
"{	c #BBDBDB",
"]	c #BBDADB",
"^	c #BBDBDC",
"/	c #BBDADC",
"(	c #6EA9F4",
"_	c #559AED",
":	c #B8D9DA",
"<	c #B9D9DA",
"[	c #456FA4",
"}	c #6EA9F3",
"|	c #579BED",
"1	c #B6D8D9",
"2	c #B6D8D8",
"3	c #C6DDF9",
"4	c #B6D7D9",
"5	c #6DA8F4",
"6	c #599CEE",
"7	c #4580C5",
"8	c #B4D5D7",
"9	c #B3D6D8",
"0	c #B3D5D8",
"a	c #6CA8F3",
"b	c #5A9DEE",
"c	c #B1D5D7",
"d	c #B0D5D6",
"e	c #B0D4D7",
"f	c #5F95D8",
"g	c #B1D4D6",
"h	c #5C9EEE",
"i	c #AED3D6",
"j	c #AED2D5",
"k	c #AED3D5",
"l	c #6AA7F2",
"m	c #5D9FEE",
"n	c #457FC5",
"o	c #ACD1D5",
"p	c #ABD2D4",
"q	c #ACD2D4",
"r	c #ACD1D4",
"s	c #69A6F2",
"t	c #5E9FEF",
"u	c #A9D0D3",
"v	c #A9CFD3",
"w	c #5FA0EF",
"x	c #A6CED1",
"y	c #A6CED2",
"z	c #68A6F2",
"A	c #60A1F0",
"B	c #447FC5",
"C	c #A4CCD0",
"D	c #A4CDD0",
"E	c #68A5F2",
"F	c #62A1F0",
"G	c #A1CBCF",
"H	c #A1CBD0",
"I	c #A1CACF",
"J	c #A2CBCF",
"K	c #A1CAD0",
"L	c #67A5F1",
"M	c #63A2F0",
"N	c #9FCACE",
"O	c #9FC9CE",
"P	c #9EC9CE",
"Q	c #66A5F1",
"R	c #65A4F1",
"S	c #5097EB",
".....................",
"+++++++++++++++++++++",
"@@@###############@@@",
"$$%&&&&&&&&&&&&&&&%$$",
"*=-;;>>>>>>>>>;;,;-=*",
"')-!~{!{{]{{!]{^/{-)'",
"(_-:<:[[[[[[[[[[::-_(",
"}|-112[33333333[14-|}",
"567899[33333333[90765",
"ab7cde[3ffffff3[eg7ba",
"ah7iji[3faaaaf3[kk7ha",
"lmnopp[3fllllf3[qrnml",
"stnuuu[3ffffff3[uvnts",
"swnxxy[33333333[xynws",
"zABCCC[[[[[[[[[[DDBAz",
"EFBGGHIGJJHIJHKJGHBFE",
"LMBNNOOOOONOOPNNOOBML",
"QQ%BBBBBBBBBBBBBBB%QQ",
"RRRSSSSSSSSSSSSSSSRRR",
"RRRRRRRRRRRRRRRRRRRRR"};
