/* XPM */
static char * maximize_toggled_pressed_xpm[] = {
"21 20 70 1",
" 	c None",
".	c #C4C8CF",
"+	c #72ABF4",
"@	c #71AAF5",
"#	c #61A1F0",
"$	c #71AAF4",
"%	c #4B94EA",
"&	c #5186C9",
"*	c #70A9F4",
"=	c #5298EC",
"-	c #4680C5",
";	c #96C2E6",
">	c #6FA9F3",
",	c #5399EC",
"'	c #95C2E6",
")	c #95C1E6",
"!	c #6EA9F4",
"~	c #559AED",
"{	c #93C0E5",
"]	c #35649F",
"^	c #6EA9F3",
"/	c #579BED",
"(	c #91C0E6",
"_	c #91C0E5",
":	c #98C6FE",
"<	c #91BFE6",
"[	c #6DA8F4",
"}	c #599CEE",
"|	c #4580C5",
"1	c #90BEE5",
"2	c #8FBEE6",
"3	c #6CA8F3",
"4	c #5A9DEE",
"5	c #8EBEE5",
"6	c #8DBEE4",
"7	c #8DBDE5",
"8	c #3984E1",
"9	c #8EBDE4",
"0	c #5C9EEE",
"a	c #8CBDE4",
"b	c #8CBCE4",
"c	c #6AA7F2",
"d	c #5D9FEE",
"e	c #457FC5",
"f	c #8ABBE3",
"g	c #8ABCE3",
"h	c #69A6F2",
"i	c #5E9FEF",
"j	c #88BAE2",
"k	c #5FA0EF",
"l	c #87B9E1",
"m	c #87B9E2",
"n	c #68A6F2",
"o	c #60A1F0",
"p	c #447FC5",
"q	c #85B7DF",
"r	c #85B8DF",
"s	c #68A5F2",
"t	c #62A1F0",
"u	c #83B7DE",
"v	c #83B7DF",
"w	c #83B6DE",
"x	c #84B7DE",
"y	c #83B6DF",
"z	c #67A5F1",
"A	c #63A2F0",
"B	c #82B6DD",
"C	c #66A5F1",
"D	c #65A4F1",
"E	c #5097EB",
".....................",
"+++++++++++++++++++++",
"@@@###############@@@",
"$$%&&&&&&&&&&&&&&&%$$",
"*=-;;;;;;;;;;;;;;;-=*",
">,-'''''')''')'')'-,>",
"!~-{{{]]]]]]]]]]{{-~!",
"^/-((_]::::::::](<-/^",
"[}|122]::::::::]22|}[",
"34|567]:888888:]79|43",
"30|aba]:833338:]aa|03",
"cdefgg]:8cccc8:]gfedc",
"hiejjj]:888888:]jjeih",
"hkellm]::::::::]lmekh",
"nopqqq]]]]]]]]]]rrpon",
"stpuuvwuxxvwxvyxuvpts",
"zApBBBBBBBBBBBBBBBpAz",
"CC%ppppppppppppppp%CC",
"DDDEEEEEEEEEEEEEEEDDD",
"DDDDDDDDDDDDDDDDDDDDD"};
