/* XPM */
static char * shade_toggled_active_xpm[] = {
"21 20 49 1",
" 	c None",
".	c #C4C8CF",
"+	c #72ABF4",
"@	c #71AAF5",
"#	c #61A1F0",
"$	c #71AAF4",
"%	c #4B94EA",
"&	c #5186C9",
"*	c #70A9F4",
"=	c #5298EC",
"-	c #4680C5",
";	c #71AAF1",
">	c #6FA9F3",
",	c #5399EC",
"'	c #6EA9F4",
")	c #559AED",
"!	c #6FA9F1",
"~	c #5F95D8",
"{	c #456FA4",
"]	c #6EA9F3",
"^	c #579BED",
"/	c #C6DDF9",
"(	c #6DA8F4",
"_	c #599CEE",
":	c #4580C5",
"<	c #6CA8F3",
"[	c #5A9DEE",
"}	c #5C9EEE",
"|	c #6AA7F2",
"1	c #5D9FEE",
"2	c #457FC5",
"3	c #69A6F2",
"4	c #5E9FEF",
"5	c #4671A7",
"6	c #C2DAF8",
"7	c #5FA0EF",
"8	c #68A6F2",
"9	c #60A1F0",
"0	c #447FC5",
"a	c #67A4EE",
"b	c #4671A6",
"c	c #68A5F2",
"d	c #62A1F0",
"e	c #67A5F1",
"f	c #63A2F0",
"g	c #67A4ED",
"h	c #66A5F1",
"i	c #65A4F1",
"j	c #5097EB",
".....................",
"+++++++++++++++++++++",
"@@@###############@@@",
"$$%&&&&&&&&&&&&&&&%$$",
"*=-;;;;;;;;;;;;;;;-=*",
">,-;;;;;;;;;;;;;;;-,>",
"')-!!!!!!~{~!!!!!!-)'",
"]^-]]]{{{{/{{{{]]]-^]",
"(_:((({//{/{//{(((:_(",
"<[:<<<~{//~//{~<<<:[<",
"<}:<<<<~{///{~<<<<:}<",
"|12|||~{{{/{{{~|||21|",
"342333566~~~665333243",
"372333566666665333273",
"890aaa~bbbbbbb~aaa098",
"cd0aaaaaaaaaaaaaaa0dc",
"ef0ggggggggggggggg0fe",
"hh%000000000000000%hh",
"iiijjjjjjjjjjjjjjjiii",
"iiiiiiiiiiiiiiiiiiiii"};
