/* XPM */
static char * shade_active_xpm[] = {
"21 20 48 1",
" 	c None",
".	c #C4C8CF",
"+	c #72ABF4",
"@	c #71AAF5",
"#	c #61A1F0",
"$	c #71AAF4",
"%	c #4B94EA",
"&	c #5186C9",
"*	c #70A9F4",
"=	c #5298EC",
"-	c #4680C5",
";	c #71AAF1",
">	c #6FA9F3",
",	c #5399EC",
"'	c #6EA9F4",
")	c #559AED",
"!	c #6FA9F1",
"~	c #5F95D8",
"{	c #4671A7",
"]	c #6EA9F3",
"^	c #579BED",
"/	c #5F95D9",
"(	c #C2DAF8",
"_	c #6DA8F4",
":	c #599CEE",
"<	c #4580C5",
"[	c #6CA8F3",
"}	c #5A9DEE",
"|	c #5C9EEE",
"1	c #6AA7F2",
"2	c #5D9FEE",
"3	c #457FC5",
"4	c #69A6F2",
"5	c #5E9FEF",
"6	c #5FA0EF",
"7	c #68A6F2",
"8	c #60A1F0",
"9	c #447FC5",
"0	c #67A4EE",
"a	c #4671A6",
"b	c #68A5F2",
"c	c #62A1F0",
"d	c #67A5F1",
"e	c #63A2F0",
"f	c #67A4ED",
"g	c #66A5F1",
"h	c #65A4F1",
"i	c #5097EB",
".....................",
"+++++++++++++++++++++",
"@@@###############@@@",
"$$%&&&&&&&&&&&&&&&%$$",
"*=-;;;;;;;;;;;;;;;-=*",
">,-;;;;;;;;;;;;;;;-,>",
"')-!!!!!!~{~!!!!!!-)'",
"]^-]]]]]/{({/]]]]]-^]",
"_:<____/{((({/____<:_",
"[}<[[[/{((/(({/[[[<}[",
"[|<[[[{(({({(({[[[<|[",
"123111{{{{({{{{111321",
"453444{(({{{(({444354",
"463444{((((((({444364",
"789000~aaaaaaa~000987",
"bc90000000000000009cb",
"de9fffffffffffffff9ed",
"gg%999999999999999%gg",
"hhhiiiiiiiiiiiiiiihhh",
"hhhhhhhhhhhhhhhhhhhhh"};
