/* XPM */
static char * shade_toggled_prelight_xpm[] = {
"21 20 91 1",
" 	c None",
".	c #C4C8CF",
"+	c #72ABF4",
"@	c #71AAF5",
"#	c #61A1F0",
"$	c #71AAF4",
"%	c #4B94EA",
"&	c #5186C9",
"*	c #70A9F4",
"=	c #5298EC",
"-	c #4680C5",
";	c #BCDCDC",
">	c #BCDBDC",
",	c #BDDBDC",
"'	c #6FA9F3",
")	c #5399EC",
"!	c #BADBDB",
"~	c #BADBDC",
"{	c #BBDBDB",
"]	c #BBDADB",
"^	c #BBDBDC",
"/	c #BBDADC",
"(	c #6EA9F4",
"_	c #559AED",
":	c #B8D9DA",
"<	c #B9D9DA",
"[	c #B8D9DB",
"}	c #5F95D8",
"|	c #456FA4",
"1	c #B8DADA",
"2	c #6EA9F3",
"3	c #579BED",
"4	c #B6D8D9",
"5	c #B6D8D8",
"6	c #C6DDF9",
"7	c #B6D7D9",
"8	c #6DA8F4",
"9	c #599CEE",
"0	c #4580C5",
"a	c #B4D5D7",
"b	c #B3D6D8",
"c	c #B3D5D8",
"d	c #6CA8F3",
"e	c #5A9DEE",
"f	c #B1D5D7",
"g	c #B0D5D6",
"h	c #B0D4D7",
"i	c #B1D4D6",
"j	c #5C9EEE",
"k	c #AED3D6",
"l	c #AED2D5",
"m	c #AFD3D6",
"n	c #AED3D5",
"o	c #6AA7F2",
"p	c #5D9FEE",
"q	c #457FC5",
"r	c #ACD1D5",
"s	c #ABD2D4",
"t	c #ACD1D4",
"u	c #ACD2D4",
"v	c #69A6F2",
"w	c #5E9FEF",
"x	c #A9D0D3",
"y	c #4872A5",
"z	c #C4DCF7",
"A	c #A9D0D2",
"B	c #A9CFD3",
"C	c #5FA0EF",
"D	c #A6CED1",
"E	c #A6CED2",
"F	c #68A6F2",
"G	c #60A1F0",
"H	c #447FC5",
"I	c #A4CCD0",
"J	c #6197D7",
"K	c #A4CDD0",
"L	c #68A5F2",
"M	c #62A1F0",
"N	c #A1CBCF",
"O	c #A1CBD0",
"P	c #A1CACF",
"Q	c #A2CBCF",
"R	c #A1CAD0",
"S	c #67A5F1",
"T	c #63A2F0",
"U	c #9FCACE",
"V	c #9FC9CE",
"W	c #9EC9CE",
"X	c #66A5F1",
"Y	c #65A4F1",
"Z	c #5097EB",
".....................",
"+++++++++++++++++++++",
"@@@###############@@@",
"$$%&&&&&&&&&&&&&&&%$$",
"*=-;;>>>>>>>>>;;,;-=*",
"')-!~{!{{]{{!]{^/{-)'",
"(_-:<::[:}|}::11::-_(",
"23-445||||6||||747-32",
"890abb|66|6|66|bbc098",
"de0fgh}|66}66|}hhi0ed",
"dj0klkm}|666|}llnn0jd",
"opqrss}|||6|||}tutqpo",
"vwqxxxyzz}}}zzyAxBqwv",
"vCqDDEyzzzzzzzyEDEqCv",
"FGHIIIJyyyyyyyJKKKHGF",
"LMHNNOPNQQOPQORQNOHML",
"STHUUVVVVVUVVWUUVVHTS",
"XX%HHHHHHHHHHHHHHH%XX",
"YYYZZZZZZZZZZZZZZZYYY",
"YYYYYYYYYYYYYYYYYYYYY"};
