/* XPM */
static char * shade_pressed_xpm[] = {
"21 20 94 2",
"  	c None",
". 	c #C4C8CF",
"+ 	c #72ABF4",
"@ 	c #71AAF5",
"# 	c #61A1F0",
"$ 	c #71AAF4",
"% 	c #4B94EA",
"& 	c #5186C9",
"* 	c #70A9F4",
"= 	c #5298EC",
"- 	c #4680C5",
"; 	c #BCDCDC",
"> 	c #BCDBDC",
", 	c #BDDBDC",
"' 	c #6FA9F3",
") 	c #5399EC",
"! 	c #BADBDB",
"~ 	c #BADBDC",
"{ 	c #BBDBDB",
"] 	c #BBDADB",
"^ 	c #BBDBDC",
"/ 	c #BBDADC",
"( 	c #6EA9F4",
"_ 	c #559AED",
": 	c #B8D9DA",
"< 	c #B9D9DA",
"[ 	c #B8D9DB",
"} 	c #6297D8",
"| 	c #4973A6",
"1 	c #B8DADA",
"2 	c #6EA9F3",
"3 	c #579BED",
"4 	c #B6D8D9",
"5 	c #B6D8D8",
"6 	c #B6D7D9",
"7 	c #C5DCF7",
"8 	c #6DA8F4",
"9 	c #599CEE",
"0 	c #4580C5",
"a 	c #B4D5D7",
"b 	c #B3D6D8",
"c 	c #6297D7",
"d 	c #B3D6D7",
"e 	c #B3D5D8",
"f 	c #6CA8F3",
"g 	c #5A9DEE",
"h 	c #B1D5D7",
"i 	c #B0D5D6",
"j 	c #B0D4D7",
"k 	c #4972A5",
"l 	c #4972A6",
"m 	c #B1D4D6",
"n 	c #5C9EEE",
"o 	c #AED3D6",
"p 	c #AED2D5",
"q 	c #AED3D5",
"r 	c #6AA7F2",
"s 	c #5D9FEE",
"t 	c #457FC5",
"u 	c #ACD1D5",
"v 	c #ABD2D4",
"w 	c #C4DCF7",
"x 	c #ACD1D4",
"y 	c #ACD2D4",
"z 	c #69A6F2",
"A 	c #5E9FEF",
"B 	c #A9D0D3",
"C 	c #4872A5",
"D 	c #A9D0D2",
"E 	c #A9CFD3",
"F 	c #5FA0EF",
"G 	c #A6CED1",
"H 	c #A6CED2",
"I 	c #68A6F2",
"J 	c #60A1F0",
"K 	c #447FC5",
"L 	c #A4CCD0",
"M 	c #6197D7",
"N 	c #A4CDD0",
"O 	c #68A5F2",
"P 	c #62A1F0",
"Q 	c #A1CBCF",
"R 	c #A1CBD0",
"S 	c #A1CACF",
"T 	c #A2CBCF",
"U 	c #A1CAD0",
"V 	c #67A5F1",
"W 	c #63A2F0",
"X 	c #9FCACE",
"Y 	c #9FC9CE",
"Z 	c #9EC9CE",
"` 	c #66A5F1",
" .	c #65A4F1",
"..	c #5097EB",
". . . . . . . . . . . . . . . . . . . . . ",
"+ + + + + + + + + + + + + + + + + + + + + ",
"@ @ @ # # # # # # # # # # # # # # # @ @ @ ",
"$ $ % & & & & & & & & & & & & & & & % $ $ ",
"* = - ; ; > > > > > > > > > ; ; , ; - = * ",
"' ) - ! ~ { ! { { ] { { ! ] { ^ / { - ) ' ",
"( _ - : < : : [ : } | } : : 1 1 : : - _ ( ",
"2 3 - 4 4 5 6 6 } | 7 | } 4 6 6 4 6 - 3 2 ",
"8 9 0 a b b b c | 7 7 7 | c d b b e 0 9 8 ",
"f g 0 h i j c k 7 7 c 7 7 l c j j m 0 g f ",
"f n 0 o p o k 7 7 k 7 k 7 7 k p q q 0 n f ",
"r s t u v v k k k k w k k k k x y x t s r ",
"z A t B B B C w w C C C w w C D B E t A z ",
"z F t G G H C w w w w w w w C H G H t F z ",
"I J K L L L M C C C C C C C M N N N K J I ",
"O P K Q Q R S Q T T R S T R U T Q R K P O ",
"V W K X X Y Y Y Y Y X Y Y Z X X Y Y K W V ",
"` ` % K K K K K K K K K K K K K K K % ` ` ",
" . . ............................... . . .",
" . . . . . . . . . . . . . . . . . . . . ."};
