/* XPM */
static char * shade_toggled_active_xpm[] = {
"21 20 47 1",
" 	c None",
".	c #C4C8CF",
"+	c #72ABF4",
"@	c #71AAF5",
"#	c #61A1F0",
"$	c #71AAF4",
"%	c #4B94EA",
"&	c #5186C9",
"*	c #70A9F4",
"=	c #5298EC",
"-	c #4680C5",
";	c #71AAF1",
">	c #6FA9F3",
",	c #5399EC",
"'	c #6EA9F4",
")	c #559AED",
"!	c #6FA9F1",
"~	c #5F95D8",
"{	c #546C8B",
"]	c #6EA9F3",
"^	c #579BED",
"/	c #C6DDF9",
"(	c #6DA8F4",
"_	c #599CEE",
":	c #4580C5",
"<	c #6CA8F3",
"[	c #5A9DEE",
"}	c #5C9EEE",
"|	c #6AA7F2",
"1	c #5D9FEE",
"2	c #457FC5",
"3	c #69A6F2",
"4	c #5E9FEF",
"5	c #C2DAF8",
"6	c #5FA0EF",
"7	c #68A6F2",
"8	c #60A1F0",
"9	c #447FC5",
"0	c #67A4EE",
"a	c #68A5F2",
"b	c #62A1F0",
"c	c #67A5F1",
"d	c #63A2F0",
"e	c #67A4ED",
"f	c #66A5F1",
"g	c #65A4F1",
"h	c #5097EB",
".....................",
"+++++++++++++++++++++",
"@@@###############@@@",
"$$%&&&&&&&&&&&&&&&%$$",
"*=-;;;;;;;;;;;;;;;-=*",
">,-;;;;;;;;;;;;;;;-,>",
"')-!!!!!!~{~!!!!!!-)'",
"]^-]]]{{{{/{{{{]]]-^]",
"(_:((({//{/{//{(((:_(",
"<[:<<<~{//~//{~<<<:[<",
"<}:<<<<~{///{~<<<<:}<",
"|12|||~{{{/{{{~|||21|",
"342333{55~~~55{333243",
"362333{5555555{333263",
"789000~{{{{{{{~000987",
"ab90000000000000009ba",
"cd9eeeeeeeeeeeeeee9dc",
"ff%999999999999999%ff",
"ggghhhhhhhhhhhhhhhggg",
"ggggggggggggggggggggg"};
