/* XPM */
static char * shade_prelight_xpm[] = {
"21 20 73 1",
" 	c None",
".	c #C4C8CF",
"+	c #72ABF4",
"@	c #71AAF5",
"#	c #61A1F0",
"$	c #71AAF4",
"%	c #4B94EA",
"&	c #5186C9",
"*	c #70A9F4",
"=	c #5298EC",
"-	c #4680C5",
";	c #96C2E6",
">	c #6FA9F3",
",	c #5399EC",
"'	c #95C2E6",
")	c #95C1E6",
"!	c #6EA9F4",
"~	c #559AED",
"{	c #93C0E5",
"]	c #93C0E6",
"^	c #3984E1",
"/	c #35649F",
"(	c #93C1E5",
"_	c #6EA9F3",
":	c #579BED",
"<	c #91C0E6",
"[	c #91C0E5",
"}	c #91BFE6",
"|	c #98C6FE",
"1	c #6DA8F4",
"2	c #599CEE",
"3	c #4580C5",
"4	c #90BEE5",
"5	c #8FBEE6",
"6	c #8FBEE5",
"7	c #6CA8F3",
"8	c #5A9DEE",
"9	c #8EBEE5",
"0	c #8DBEE4",
"a	c #8DBDE5",
"b	c #8EBDE4",
"c	c #5C9EEE",
"d	c #8CBDE4",
"e	c #8CBCE4",
"f	c #6AA7F2",
"g	c #5D9FEE",
"h	c #457FC5",
"i	c #8ABBE3",
"j	c #8ABCE3",
"k	c #69A6F2",
"l	c #5E9FEF",
"m	c #88BAE2",
"n	c #5FA0EF",
"o	c #87B9E1",
"p	c #87B9E2",
"q	c #68A6F2",
"r	c #60A1F0",
"s	c #447FC5",
"t	c #85B7DF",
"u	c #85B8DF",
"v	c #68A5F2",
"w	c #62A1F0",
"x	c #83B7DE",
"y	c #83B7DF",
"z	c #83B6DE",
"A	c #84B7DE",
"B	c #83B6DF",
"C	c #67A5F1",
"D	c #63A2F0",
"E	c #82B6DD",
"F	c #66A5F1",
"G	c #65A4F1",
"H	c #5097EB",
".....................",
"+++++++++++++++++++++",
"@@@###############@@@",
"$$%&&&&&&&&&&&&&&&%$$",
"*=-;;;;;;;;;;;;;;;-=*",
">,-'''''')''')'')'-,>",
"!~-{{{{]{^/^{{(({{-~!",
"_:-<<[}}^/|/^<}}<}-:_",
"1234555^/|||/^6555321",
"78390a^/||^||/^aab387",
"7c3ded/||/|/||/edd3c7",
"fghijj////|////ijihgf",
"klhmmm/||///||/mmmhlk",
"knhoop/|||||||/pophnk",
"qrsttt^///////^uuusrq",
"vwsxxyzxAAyzAyBAxyswv",
"CDsEEEEEEEEEEEEEEEsDC",
"FF%sssssssssssssss%FF",
"GGGHHHHHHHHHHHHHHHGGG",
"GGGGGGGGGGGGGGGGGGGGG"};
