/* XPM */
static char * stick_toggled_prelight_xpm[] = {
"21 20 66 1",
" 	c None",
".	c #C4C8CF",
"+	c #72ABF4",
"@	c #71AAF5",
"#	c #71AAF4",
"$	c #70A9F4",
"%	c #60A1F0",
"&	c #6FA9F3",
"*	c #4B94EA",
"=	c #5086C9",
"-	c #6EA9F4",
";	c #559AED",
">	c #4680C5",
",	c #B8D9DA",
"'	c #B9D9DA",
")	c #B8D9DB",
"!	c #B8DADA",
"~	c #6EA9F3",
"{	c #579BED",
"]	c #B6D8D9",
"^	c #B6D8D8",
"/	c #B6D7D9",
"(	c #B5D7D9",
"_	c #6DA8F4",
":	c #599CEE",
"<	c #4580C5",
"[	c #B4D5D7",
"}	c #5F95D8",
"|	c #456FA4",
"1	c #B3D5D8",
"2	c #6CA8F3",
"3	c #5A9DEE",
"4	c #B1D5D7",
"5	c #C6DDF9",
"6	c #B1D4D6",
"7	c #5C9EEE",
"8	c #AED3D6",
"9	c #AED3D5",
"0	c #6AA7F2",
"a	c #5D9FEE",
"b	c #457FC5",
"c	c #ACD1D5",
"d	c #ACD1D4",
"e	c #69A6F2",
"f	c #5E9FEF",
"g	c #A9D0D3",
"h	c #A9CFD3",
"i	c #5FA0EF",
"j	c #A6CED1",
"k	c #A6CED2",
"l	c #68A6F2",
"m	c #447FC5",
"n	c #A4CCD0",
"o	c #A4CDD0",
"p	c #68A5F2",
"q	c #62A1F0",
"r	c #A1CBCF",
"s	c #A1CBD0",
"t	c #67A5F1",
"u	c #63A2F0",
"v	c #9FCACE",
"w	c #9FC9CE",
"x	c #9EC9CE",
"y	c #66A5F1",
"z	c #65A4F1",
"A	c #5097EB",
".....................",
"+++++++++++++++++++++",
"@@@@@@@@@@@@@@@@@@@@@",
"#####################",
"$$$%%%%%%%%%%%%%%%$$$",
"&&*===============*&&",
"-;>,',,),,',,,!!,,>;-",
"~{>]]^///(]//]//]/>{~",
"_:<[}|||||||||||}1<:_",
"23<4|55555}55555|6<32",
"27<8|5|||5}5|||5|9<72",
"0abc|5|}|5}5|}|5|dba0",
"efbg|5|}|5}5|}|5|hbfe",
"eibj|5|||5}5|||5|kbie",
"l%mn|55555}55555|om%l",
"pqmr}|||||||||||}smqp",
"tumvvwwwwwvwwxvvwwmut",
"yy*mmmmmmmmmmmmmmm*yy",
"zzzAAAAAAAAAAAAAAAzzz",
"zzzzzzzzzzzzzzzzzzzzz"};
