/* XPM */
static char * stick_pressed_xpm[] = {
"21 20 58 1",
" 	c None",
".	c #C4C8CF",
"+	c #72ABF4",
"@	c #71AAF5",
"#	c #71AAF4",
"$	c #70A9F4",
"%	c #60A1F0",
"&	c #6FA9F3",
"*	c #4B94EA",
"=	c #5086C9",
"-	c #6EA9F4",
";	c #559AED",
">	c #4680C5",
",	c #94C1E5",
"'	c #94C1E6",
")	c #6EA9F3",
"!	c #579BED",
"~	c #93C0E5",
"{	c #93C0E4",
"]	c #92C0E5",
"^	c #6DA8F4",
"/	c #599CEE",
"(	c #4580C5",
"_	c #91BEE4",
":	c #3984E1",
"<	c #35649F",
"[	c #90BEE4",
"}	c #6CA8F3",
"|	c #5A9DEE",
"1	c #8EBEE5",
"2	c #98C6FE",
"3	c #8EBDE4",
"4	c #5C9EEE",
"5	c #8CBDE4",
"6	c #6AA7F2",
"7	c #5D9FEE",
"8	c #457FC5",
"9	c #8ABBE3",
"0	c #69A6F2",
"a	c #5E9FEF",
"b	c #88BAE2",
"c	c #5FA0EF",
"d	c #87B9E1",
"e	c #87B9E2",
"f	c #68A6F2",
"g	c #447FC5",
"h	c #85B7DF",
"i	c #85B8DF",
"j	c #68A5F2",
"k	c #62A1F0",
"l	c #83B7DE",
"m	c #83B7DF",
"n	c #67A5F1",
"o	c #63A2F0",
"p	c #82B6DD",
"q	c #66A5F1",
"r	c #65A4F1",
"s	c #5097EB",
".....................",
"+++++++++++++++++++++",
"@@@@@@@@@@@@@@@@@@@@@",
"#####################",
"$$$%%%%%%%%%%%%%%%$$$",
"&&*===============*&&",
"-;>,,,,',,,,,,,,,,>;-",
")!>~~{~~~]~~~~~~~~>!)",
"^/(_:<<<<<<<<<<<:[(/^",
"}|(1<22222:22222<3(|}",
"}4(5<2<<<2:22222<5(4}",
"6789<2<:<2:22222<9876",
"0a8b<2<:<2:22222<b8a0",
"0c8d<2<<<2:22222<e8c0",
"f%gh<22222:22222<ig%f",
"jkgl:<<<<<<<<<<<:mgkj",
"nogpppppppppppppppgon",
"qq*ggggggggggggggg*qq",
"rrrsssssssssssssssrrr",
"rrrrrrrrrrrrrrrrrrrrr"};
