/* XPM */
static char * title_2_active_xpm[] = {
"14 22 33 1",
" 	c None",
".	c #67686A",
"+	c #636466",
"@	c #5F6062",
"#	c #5B5C5E",
"$	c #575859",
"%	c #535455",
"&	c #4F5051",
"*	c #4B4B4C",
"=	c #474748",
"-	c #434344",
";	c #3F3F3F",
">	c #3B3B3B",
",	c #373737",
"'	c #333333",
")	c #C4C8CF",
"!	c #72ABF4",
"~	c #71AAF5",
"{	c #71AAF4",
"]	c #70A9F4",
"^	c #6FA9F3",
"/	c #6EA9F4",
"(	c #6EA9F3",
"_	c #6DA8F4",
":	c #6CA8F3",
"<	c #6AA7F2",
"[	c #69A6F2",
"}	c #68A6F2",
"|	c #68A5F2",
"1	c #67A5F1",
"2	c #66A5F1",
"3	c #65A4F1",
"4	c #63A4F0",
".+@#$%&*=-;>,'",
"))))))))))))))",
"!!!!!!!!!!!!!!",
"~~~~~~~~~~~~~~",
"{{{{{{{{{{{{{{",
"]]]]]]]]]]]]]]",
"^^^^^^^^^^^^^^",
"//////////////",
"((((((((((((((",
"______________",
"::::::::::::::",
"::::::::::::::",
"<<<<<<<<<<<<<<",
"[[[[[[[[[[[[[[",
"[[[[[[[[[[[[[[",
"}}}}}}}}}}}}}}",
"||||||||||||||",
"11111111111111",
"22222222222222",
"33333333333333",
"33333333333333",
"44444444444444"};
