/* XPM */
static char * title_5_active_xpm[] = {
"1 22 20 1",
" 	c None",
".	c #898A8C",
"+	c #C4C8CF",
"@	c #72ABF4",
"#	c #71AAF5",
"$	c #71AAF4",
"%	c #70A9F4",
"&	c #6FA9F3",
"*	c #6EA9F4",
"=	c #6EA9F3",
"-	c #6DA8F4",
";	c #6CA8F3",
">	c #6AA7F2",
",	c #69A6F2",
"'	c #68A6F2",
")	c #68A5F2",
"!	c #67A5F1",
"~	c #66A5F1",
"{	c #65A4F1",
"]	c #63A4F0",
".",
"+",
"@",
"#",
"$",
"%",
"&",
"*",
"=",
"-",
";",
";",
">",
",",
",",
"'",
")",
"!",
"~",
"{",
"{",
"]"};
