/* XPM */
static char * top_left_active_xpm[] = {
"5 22 38 1",
" 	c None",
".	c #898A8C",
"+	c #C4C8CF",
"@	c #B8C4D4",
"#	c #71AAF5",
"$	c #B5C2D6",
"%	c #71AAF4",
"&	c #B1C1D7",
"*	c #70A9F4",
"=	c #ADBFD9",
"-	c #6FA9F3",
";	c #A9BEDB",
">	c #6EA9F4",
",	c #A5BDDC",
"'	c #6EA9F3",
")	c #A1BBDE",
"!	c #6DA8F4",
"~	c #9CB9DF",
"{	c #6CA8F3",
"]	c #98B8E1",
"^	c #93B6E2",
"/	c #6AA7F2",
"(	c #8EB4E4",
"_	c #69A6F2",
":	c #8AB2E5",
"<	c #85B1E7",
"[	c #68A6F2",
"}	c #81AEE9",
"|	c #68A5F2",
"1	c #7CADE9",
"2	c #67A5F1",
"3	c #77ABEB",
"4	c #66A5F1",
"5	c #72A9EC",
"6	c #65A4F1",
"7	c #6EA7EE",
"8	c #67A6EF",
"9	c #63A4F0",
"     ",
"   ..",
"  .++",
" .@##",
" .$%%",
".&***",
".=---",
".;>>>",
".,'''",
".)!!!",
".~{{{",
".]{{{",
".^///",
".(___",
".:___",
".<[[[",
".}|||",
".1222",
".3444",
".5666",
".7666",
".8999"};
