/* XPM */
static char * top_right_active_xpm[] = {
"5 22 57 1",
" 	c None",
".	c #6C6D6F",
"+	c #C4C8CF",
"@	c #71AAF5",
"#	c #B8C4D4",
"$	c #666769",
"%	c #71AAF4",
"&	c #B5C2D6",
"*	c #646567",
"=	c #70A9F4",
"-	c #B1C1D7",
";	c #626365",
">	c #6FA9F3",
",	c #ADBFD9",
"'	c #616163",
")	c #6EA9F4",
"!	c #A9BEDB",
"~	c #5F5F61",
"{	c #6EA9F3",
"]	c #A5BDDC",
"^	c #5D5E5F",
"/	c #6DA8F4",
"(	c #A1BBDE",
"_	c #5B5C5D",
":	c #6CA8F3",
"<	c #9CB9DF",
"[	c #595A5B",
"}	c #98B8E1",
"|	c #575859",
"1	c #6AA7F2",
"2	c #93B6E2",
"3	c #565657",
"4	c #69A6F2",
"5	c #8EB4E4",
"6	c #545455",
"7	c #8AB2E5",
"8	c #525253",
"9	c #68A6F2",
"0	c #85B1E7",
"a	c #505151",
"b	c #68A5F2",
"c	c #81AEE9",
"d	c #4E4F4F",
"e	c #67A5F1",
"f	c #7CADE9",
"g	c #4D4D4D",
"h	c #66A5F1",
"i	c #77ABEB",
"j	c #4B4B4B",
"k	c #65A4F1",
"l	c #72A9EC",
"m	c #494949",
"n	c #6EA7EE",
"o	c #474747",
"p	c #63A4F0",
"q	c #67A6EF",
"r	c #454545",
"     ",
"..   ",
"++.  ",
"@@#$ ",
"%%&* ",
"===-;",
">>>,'",
")))!~",
"{{{]^",
"///(_",
":::<[",
":::}|",
"11123",
"44456",
"44478",
"9990a",
"bbbcd",
"eeefg",
"hhhij",
"kkklm",
"kkkno",
"pppqr"};
