/* XPM */
static char * top_left_active_xpm[] = {
"5 22 57 1",
" 	c None",
".	c #6C6D6F",
"+	c #C4C8CF",
"@	c #666769",
"#	c #B8C4D4",
"$	c #71AAF5",
"%	c #646567",
"&	c #B5C2D6",
"*	c #71AAF4",
"=	c #626365",
"-	c #B1C1D7",
";	c #70A9F4",
">	c #616163",
",	c #ADBFD9",
"'	c #6FA9F3",
")	c #5F5F61",
"!	c #A9BEDB",
"~	c #6EA9F4",
"{	c #5D5E5F",
"]	c #A5BDDC",
"^	c #6EA9F3",
"/	c #5B5C5D",
"(	c #A1BBDE",
"_	c #6DA8F4",
":	c #595A5B",
"<	c #9CB9DF",
"[	c #6CA8F3",
"}	c #575859",
"|	c #98B8E1",
"1	c #565657",
"2	c #93B6E2",
"3	c #6AA7F2",
"4	c #545455",
"5	c #8EB4E4",
"6	c #69A6F2",
"7	c #525253",
"8	c #8AB2E5",
"9	c #505151",
"0	c #85B1E7",
"a	c #68A6F2",
"b	c #4E4F4F",
"c	c #81AEE9",
"d	c #68A5F2",
"e	c #4D4D4D",
"f	c #7CADE9",
"g	c #67A5F1",
"h	c #4B4B4B",
"i	c #77ABEB",
"j	c #66A5F1",
"k	c #494949",
"l	c #72A9EC",
"m	c #65A4F1",
"n	c #474747",
"o	c #6EA7EE",
"p	c #454545",
"q	c #67A6EF",
"r	c #63A4F0",
"     ",
"   ..",
"  .++",
" @#$$",
" %&**",
"=-;;;",
">,'''",
")!~~~",
"{]^^^",
"/(___",
":<[[[",
"}|[[[",
"12333",
"45666",
"78666",
"90aaa",
"bcddd",
"efggg",
"hijjj",
"klmmm",
"nommm",
"pqrrr"};
